<svg id="Layer_3" height="512" viewBox="0 0 512 512" width="512" xmlns="http://www.w3.org/2000/svg" data-name="Layer 3"><path d="m504 512v-128l-72-32h-344l-80 32v128" fill="#354458"/><path d="m216 512v-8l-32-152h-32l-40 72 64 64h-32v24z" fill="#4c637c"/><path d="m295.667 512v-8l32.333-152h32l40 72-64 64h32v24z" fill="#4c637c"/><path d="m232 512v-56l-16-40 40-24 40 24-16 40v56" fill="#e2796f"/><path d="m256 392-40 24 16 40h48l16-40z" fill="#d35f4c"/><path d="m328 352-16.394 77.07-55.606-37.07-55.754 37.169-16.246-77.169z" fill="#fff"/><path d="m200 264v88l56 40 56-40v-88z" fill="#fdcaa7"/><path d="m200 323.212c52.244 18.922 94.943-7.19 112-20.387v-30.825h-112z" fill="#eaa475"/><path d="m360 128v-72l-72-48h-72l-64 56v64l40 16h140.333z" fill="#8f4c2e"/><path d="m336 256-56 48h-48l-56-48v-168l32-24 48 16 56-16 24 24z" fill="#fdcaa7"/><path d="m280 304 11.017-9.443-53.421-38.852a50.12 50.12 0 0 1 -20.607-42.389l-.963-146.641-8.026-2.675-32 24v168l56 48z" fill="#f9f2ed" opacity=".3"/><path d="m176 216-24-24v-64l24 8z" fill="#f9bc93"/><path d="m336 216 24-24v-64l-24 13.88z" fill="#f9bc93"/><path d="m232 144h-40l8 32h32z" fill="#54310c"/><path d="m280 144h40l-8 32h-32z" fill="#54310c"/><path d="m285.657 237.657 8-8-11.313-11.313-5.657 5.656h-49.374l-5.657-5.657-11.313 11.313 8 8a8 8 0 0 0 5.657 2.344h56a8 8 0 0 0 5.657-2.343z"/><path d="m248 248h16v16h-16z"/><path d="m234.343 133.657 11.313-11.313-8-8a8 8 0 0 0 -5.656-2.344h-32v16h28.687z"/><path d="m283.313 128h28.687v-16h-32a8 8 0 0 0 -5.657 2.343l-8 8 11.313 11.313z"/><path d="m507.249 376.689-72-32a8 8 0 0 0 -3.249-.689h-112v-63.749l21.207-18.177a8 8 0 0 0 2.793-6.074v-36.687l21.657-21.657a8 8 0 0 0 2.343-5.656v-136a8 8 0 0 0 -3.563-6.656l-72-48a8 8 0 0 0 -4.437-1.344h-72a8 8 0 0 0 -5.268 1.979l-64 56a8 8 0 0 0 -2.732 6.021v128a8 8 0 0 0 2.343 5.657l21.657 21.656v36.687a8 8 0 0 0 2.793 6.074l21.207 18.177v63.749h-104a8 8 0 0 0 -2.971.572l-80 32a8 8 0 0 0 -5.029 7.428v128h16v-122.583l73.541-29.417h48.859l-33.4 60.115a8 8 0 0 0 1.336 9.542l50.35 50.343h-12.686a8 8 0 0 0 -8 8v24h16v-16h24a8 8 0 0 0 5.657-13.657l-59.733-59.733 34.783-62.61h20.8l30.493 144.833v7.167h32v-48h32v48h31.667v-7.159l30.81-144.841h20.816l34.783 62.61-59.733 59.733a8 8 0 0 0 5.657 13.657h24v16h16v-24a8 8 0 0 0 -8-8h-12.686l50.343-50.343a8 8 0 0 0 1.336-9.542l-33.393-60.115h56.7l65.7 29.2v122.8h16v-128a8 8 0 0 0 -4.751-7.311zm-155.249-188.002-8 8v-54.92l8-2.667zm0-128.405v61.953l-8 2.667v-36.902a8 8 0 0 0 -2.343-5.657l-24-24a8 8 0 0 0 -7.854-2.036l-45.803 13.087v-53.394h21.578zm-132.994-44.282h28.994v52.9l-37.47-12.49a8 8 0 0 0 -7.33 1.19l-32 24a8 8 0 0 0 -3.2 6.4v36.9l-8-2.667v-54.603zm-59.006 172.687v-49.587l8 2.667v54.92zm24-96.687 25.447-19.085 44.023 14.674a8.013 8.013 0 0 0 4.728.1l51.474-14.707 18.328 18.331v161.007l-50.96 43.68h-42.081l-50.959-43.68zm42.793 218.074a8 8 0 0 0 5.207 1.926h48a8 8 0 0 0 5.206-1.926l18.794-16.109v53.918l-48 34.286-48-34.286v-53.917zm10.623 137.926-10.234-25.585 28.818-20.584 28.818 20.584-10.234 25.585zm-39.98-88 44.8 32-36.2 25.855-12.176-57.855zm26.564 144a8.022 8.022 0 0 0 -.171-1.648l-14.191-67.405 4.141-2.958 10.221 25.552zm64-46.459 10.221-25.552 3.98 2.843-14.201 66.76zm17.832-39.777-36.068-25.764 44.8-32h3.556z"/><path d="m240 176v-24h8v40a8 8 0 0 0 8 8h16v-16h-8v-32h8v24a8 8 0 0 0 8 8h32a8 8 0 0 0 7.761-6.06l8-32a8 8 0 0 0 -7.761-9.94h-128a8 8 0 0 0 -7.761 9.94l8 32a8 8 0 0 0 7.761 6.06h32a8 8 0 0 0 8-8zm48-24h21.754l-4 16h-17.754zm-64 16h-17.754l-4-16h21.754z"/></svg>