<svg id="Livello_1" data-name="Livello 1" xmlns="http://www.w3.org/2000/svg" viewBox="0 0 1020.48 694.05">
  <defs>
    <style>
      .cls-1 {
        fill: #ff7303;
      }
    </style>
  </defs>
  <title>logo corto creditoveloce</title>
  <g>
    <path class="cls-1" d="M1029.54,761.79c13.82,13.49,20.7,30.8,20.7,51.79q0,29.48-20.7,50.82-20.73,21.17-51.31,21.19c-19.65,0-36.62-6.89-50.78-20.71s-21.23-30.55-21.23-50.3q0-31.64,21.76-52.31t51.3-20.7q29.49,0,50.26,20.22M912.15,193h133.22l-15.83,499.19L928,644.84Z" transform="translate(-29.76 -192.98)"/>
    <polygon class="cls-1" points="312.17 510.88 153.46 352.55 223.88 283.67 312.17 371.07 698.87 0.7 760.4 62.28 312.17 510.88"/>
    <path class="cls-1" d="M322.26,887a292.48,292.48,0,1,1,0-585,50.59,50.59,0,1,1,0,101.18A191.3,191.3,0,1,0,513.54,594.56a50.62,50.62,0,1,1,101.23,0A292.53,292.53,0,0,1,322.26,887" transform="translate(-29.76 -192.98)"/>
  </g>
</svg>
