<svg id="Layer_3" height="512" viewBox="0 0 512 512" width="512" xmlns="http://www.w3.org/2000/svg" data-name="Layer 3"><path d="m504 512v-128l-72-32h-344l-80 32v128z" fill="#3e73a3"/><path d="m232 512v-56l-16-40 40-24 40 24-16 40v56" fill="#e29e30"/><path d="m256 392-40 24 16 40h48l16-40z" fill="#dd8f1d"/><path d="m328 352v88l-72-48-72 48v-88z" fill="#7293b7"/><path d="m200 264v88l56 40 56-40v-88z" fill="#fdcaa7"/><path d="m200 323.212c52.244 18.922 94.943-7.19 112-20.387v-30.825h-112z" fill="#eaa475"/><path d="m304 8h-64s-37.881 10.94-48 16c-16 8-56 0-56 0 12.333 24 32 24 32 24l-16 16v64l24 64h160l24-64v-80z" fill="#8f4c2e"/><path d="m336 256-56 48h-48l-56-48v-168l32-32h104l24 32z" fill="#fdcaa7"/><path d="m280 304 11.017-9.443-53.421-38.852a50.12 50.12 0 0 1 -20.607-42.389v-157.316h-8.989l-32 32v168l56 48z" fill="#f9f2ed" opacity=".3"/><path d="m176 216-24-24v-64l24 8z" fill="#f9bc93"/><path d="m336 216 24-24v-64l-24 8z" fill="#f9bc93"/><path d="m336 512v-40h64v40" fill="#88afd3"/><path d="m344 472 56-40v40z" fill="#7293b7"/><path d="m256 200h16v-16h-8v-48h-16v56a8 8 0 0 0 8 8z"/><path d="m285.657 237.657 8-8-11.313-11.313-5.657 5.656h-49.374l-5.657-5.657-11.313 11.313 8 8a8 8 0 0 0 5.657 2.344h56a8 8 0 0 0 5.657-2.343z"/><path d="m248 248h16v16h-16z"/><path d="m234.343 133.657 11.313-11.313-8-8a8 8 0 0 0 -5.656-2.344h-32v16h28.687z"/><path d="m283.313 128h28.687v-16h-32a8 8 0 0 0 -5.657 2.343l-8 8 11.313 11.313z"/><path d="m208 136h16v16h-16z"/><path d="m288 136h16v16h-16z"/><path d="m507.249 376.689-72-32a8 8 0 0 0 -3.249-.689h-112v-63.749l21.207-18.177a8 8 0 0 0 2.793-6.074v-36.687l21.657-21.657a8 8 0 0 0 2.343-5.656v-144a8 8 0 0 0 -3.35-6.51l-56-40a8 8 0 0 0 -4.65-1.49h-64a8.014 8.014 0 0 0 -2.22.314c-3.949 1.141-38.886 11.295-49.358 16.531-9.844 4.921-36.418 2.188-50.854-.689a8 8 0 0 0 -8.684 11.5c6.97 13.561 16.116 20.636 23.822 24.324l-6.362 6.363a8 8 0 0 0 -2.344 5.657v128a8 8 0 0 0 2.343 5.657l21.657 21.656v36.687a8 8 0 0 0 2.793 6.074l21.207 18.177v63.749h-104a8 8 0 0 0 -2.971.572l-80 32a8 8 0 0 0 -5.029 7.428v128h16v-122.583l73.541-29.417h107.9l44.482 31.773-49.923 33.279v-57.052h-16v72a8 8 0 0 0 12.437 6.656l24.639-16.426 10.924 27.311v54.459h16v-48h32v48h16v-54.459l10.924-27.31 24.639 16.426a8 8 0 0 0 12.437-6.657v-80h94.3l65.7 29.2v122.8h16v-128a8 8 0 0 0 -4.751-7.311zm-155.249-188.002-8 8v-54.92l8-2.667zm-156.422-157.532c7.5-3.752 34.438-11.919 45.559-15.155h60.3l50.563 36.117v70.117l-8 2.667v-36.901a8 8 0 0 0 -1.6-4.8l-24-32a8 8 0 0 0 -6.4-3.2h-104a8 8 0 0 0 -5.657 2.343l-32 32a8 8 0 0 0 -2.343 5.657v36.9l-8-2.667v-54.92l13.657-13.657a8.038 8.038 0 0 0 1.8-8.823 7.877 7.877 0 0 0 -7.408-4.833c-.742-.032-6.507-.435-13.059-5.206 13.519 1.267 30.41 1.448 40.588-3.639zm-35.578 157.532v-49.587l8 2.667v54.92zm24-97.373 18.563-18.564c.258.915.534 1.84.847 2.78 4.752 14.258 13.764 23.961 26.06 28.06l5.06-15.179c-11.7-3.9-16.013-16.133-17.6-24.411h91.07l20 26.667v161.653l-50.96 43.68h-42.081l-50.959-43.68zm24 202.652 18.793 16.108a8 8 0 0 0 5.207 1.926h48a8 8 0 0 0 5.206-1.926l18.794-16.109v53.918l-48 34.286-48-34.286zm66.584 154.034h-37.168l-10.736-26.839 29.32-19.546 29.319 19.546zm45.416-22.948-49.919-33.279 44.483-31.773h5.436z"/><path d="m408 512v-80a8 8 0 0 0 -12.65-6.51l-53.914 38.51h-5.436a8 8 0 0 0 -8 8v40h16v-32h48v32zm-39.036-48 23.036-16.455v16.455z"/></svg>