<?xml version="1.0" encoding="utf-8"?>
<!-- Generator: Adobe Illustrator 23.0.1, SVG Export Plug-In . SVG Version: 6.00 Build 0)  -->
<svg version="1.1" id="Livello_1" xmlns="http://www.w3.org/2000/svg" xmlns:xlink="http://www.w3.org/1999/xlink" x="0px" y="0px"
	 viewBox="0 0 1920 1080" style="enable-background:new 0 0 1920 1080;" xml:space="preserve">
<style type="text/css">
	.st0{fill:#CCCCCC;}
	.st1{fill:#417CB6;}
	.st2{fill:none;}
	.st3{font-family:'Hey-August';}
	.st4{font-size:104px;}
	.st5{fill:#484848;}
</style>
<g>
	<g>
		<path class="st0" d="M552.4,543.5c21.6,11.9,38.5,28.8,50.8,50.6c12.3,21.8,18.4,46.9,18.4,75.3s-6.2,53.6-18.4,75.6
			c-12.3,22-29.2,38.9-50.8,50.8c-21.6,11.9-46.1,17.9-73.5,17.9c-37.9,0-67.9-12.6-90.1-37.9v136.4H323V528.7h62.7v36.9
			c10.9-13.3,24.3-23.3,40.3-30c16-6.7,33.6-10,52.9-10C506.3,525.6,530.8,531.5,552.4,543.5z M531.3,733.1
			c15.6-16.2,23.4-37.4,23.4-63.7c0-26.3-7.8-47.6-23.4-63.7c-15.6-16.2-35.5-24.2-59.8-24.2c-15.8,0-30,3.6-42.7,10.8
			c-12.6,7.2-22.6,17.5-30,30.8c-7.4,13.3-11.1,28.8-11.1,46.3c0,17.6,3.7,33,11.1,46.3c7.4,13.3,17.4,23.6,30,30.8
			c12.6,7.2,26.9,10.8,42.7,10.8C495.8,757.3,515.7,749.2,531.3,733.1z"/>
		<path class="st0" d="M679,528.7h65.8V810H679V528.7z"/>
		<path class="st1" d="M826,419.2h65.8V810H826V419.2z"/>
		<path class="st1" d="M972.9,419.2h65.8V810h-65.8V419.2z"/>
		<path class="st1" d="M538.7,233.7v-65.8h662.5v65.8H538.7z"/>
		<path class="st0" d="M1322.3,555.3c21.9,19.8,32.9,49.8,32.9,89.8V810h-62.2v-34.2c-8.1,12.3-19.6,21.7-34.5,28.2
			c-14.9,6.5-32.9,9.7-54,9.7c-21.1,0-39.5-3.6-55.3-10.8s-28-17.2-36.6-30c-8.6-12.8-12.9-27.3-12.9-43.5
			c0-25.3,9.4-45.6,28.2-60.8c18.8-15.3,48.4-22.9,88.7-22.9h72.7v-4.2c0-19.7-5.9-34.8-17.6-45.3c-11.8-10.5-29.2-15.8-52.4-15.8
			c-15.8,0-31.3,2.5-46.6,7.4c-15.3,4.9-28.2,11.8-38.7,20.5l-25.8-47.9c14.8-11.2,32.5-19.8,53.2-25.8c20.7-6,42.7-9,65.8-9
			C1268.7,525.6,1300.4,535.5,1322.3,555.3z M1262.3,754.4c12.8-7.5,21.9-18.3,27.1-32.4v-32.7h-67.9c-37.9,0-56.9,12.5-56.9,37.4
			c0,11.9,4.7,21.4,14.2,28.4c9.5,7,22.6,10.5,39.5,10.5C1234.8,765.7,1249.5,762,1262.3,754.4z"/>
		<path class="st0" d="M1597,525.6v62.7c-5.6-1-10.7-1.6-15.3-1.6c-25.6,0-45.7,7.5-60,22.4c-14.4,14.9-21.6,36.4-21.6,64.5v136.4
			h-65.8V528.7h62.7v41.1C1515.9,540.3,1549.2,525.6,1597,525.6z"/>
	</g>
	<g>
		<g>
			<path class="st1" d="M684.6,359.5c-1.6,0.6-2.8,1.4-4.2,2.3c-1,0.7-2,1.4-2.9,2.1c-7.5,6.1-12.3,15.4-12.3,25.8
				c0,18.5,15,33.5,33.5,33.5c13.4,0,24.9-7.9,30.2-19.2l59.2,23.8c-14.8,34.8-49.3,59.2-89.4,59.2c-53.6,0-97.2-43.6-97.2-97.2
				c0-48.4,35.6-88.6,81.9-96c0.4-0.1,0.8-0.1,1.1-0.2c4.4-0.6,8.9-1,13.5-1v0h417.4v65.8H701.6h-5.5h-4.9c-0.7,0-1.4,0-2.1,0
				C687.1,358.6,685.6,359.1,684.6,359.5z"/>
		</g>
	</g>
</g>
<rect x="649.6" y="827.8" class="st2" width="419.4" height="134.4"/>
<text transform="matrix(1 0 0 1 649.583 905.6602)" class="st1 st3 st4">web</text>
<text transform="matrix(1 0 0 1 777.913 905.6602)" class="st5 st3 st4">-</text>
<text transform="matrix(1 0 0 1 827.213 905.6602)" class="st1 st3 st4">agency</text>
<polygon class="st2" points="1549.6,996.6 1546.5,996.6 1546.5,996.6 "/>
</svg>
